# xmcd
#
# Track frame offsets: 
#        150
#        15733
#        33430
#        51429
#        66280
#        84138
#        98504
#        113523
#        129216
#        143050
#        157873
#        173152
#
# Disc length: 2508 seconds
#
# Revision: 0
# Processed by: cddbd v1.5.2PL0 Copyright (c) Steve Scherf et al.
# Submitted via: ExactAudioCopy v0.95b4
#
DISCID=8809ca0c
DTITLE=THE POWDER BLUES BAND - PLATINUM
DYEAR=2007
DGENRE=BLUES
TTITLE0=THIRSTY EARS
TTITLE1=PINK CHAMPAIGN
TTITLE2=THE UNDERCOVER BLUES
TTITLE3=LOVIN' KISSIN' and HUGGIN'
TTITLE4=JOY RIDIN'
TTITLE5=SHE'S CRAZY
TTITLE6=BOPPIN' WITH THE BLUES
TTITLE7=DOIN' IT RIGHT
TTITLE8=BUZZARD LUCK
TTITLE9=WHAT'VE I BEEN DRINKING
TTITLE10=JUMP UP
TTITLE11=JUST A CRAZY PARTY BAND
EXTD=
EXTT0=
EXTT1=
EXTT2=
EXTT3=
EXTT4=
EXTT5=
EXTT6=
EXTT7=
EXTT8=
EXTT9=
EXTT10=
EXTT11=
PLAYORDER=
